<svg xmlns="http://www.w3.org/2000/svg" width="192" height="192" viewBox="0 0 192 192">
<g>
<path d="M 149.70 167.37 C142.99,167.71 135.70,168.18 133.50,168.42 C131.30,168.66 127.70,168.46 125.50,167.98 C123.30,167.51 102.77,167.09 79.87,167.06 C46.32,167.01 38.03,166.74 37.13,165.66 C35.37,163.53 36.84,163.00 44.50,163.00 C48.44,163.00 51.95,162.72 52.29,162.37 C52.64,162.03 52.26,160.48 51.46,158.92 C48.96,154.09 49.60,151.06 53.96,147.03 C60.22,141.26 61.32,135.87 61.53,110.00 C61.67,92.61 62.01,87.80 63.33,84.84 C64.92,81.25 64.89,81.07 61.85,75.17 C61.03,73.59 60.41,72.40 59.96,71.14 C58.51,67.20 58.64,62.69 59.19,43.77 L 59.19 43.50 C59.62,28.61 61.13,24.00 65.58,24.00 C68.71,24.00 73.66,26.44 77.15,29.71 C79.68,32.07 80.05,32.13 85.33,31.04 C89.45,30.18 92.44,30.17 97.05,31.01 C102.69,32.03 103.42,31.96 105.37,30.17 C109.23,26.62 114.45,24.01 117.67,24.00 C120.57,24.00 120.97,24.41 122.45,28.85 C123.47,31.93 124.08,37.32 124.12,43.60 C124.15,49.05 124.24,57.10 124.32,61.50 C124.44,67.94 124.03,70.39 122.23,74.07 C122.12,74.29 122.02,74.50 121.92,74.71 C120.69,77.21 119.93,78.75 120.12,80.17 C120.43,82.59 123.48,84.65 131.61,90.44 C141.61,97.56 149.23,108.75 152.07,120.50 C152.83,123.65 154.36,126.51 156.19,128.24 C160.76,132.54 163.35,139.38 162.65,145.27 C162.02,150.61 158.06,158.32 154.94,160.27 C151.67,162.31 152.73,163.00 159.15,163.00 C165.12,163.00 165.26,163.06 163.61,164.88 C162.19,166.45 159.88,166.86 149.70,167.37 ZM 76.07 160.13 C77.23,162.31 79.43,162.18 79.59,159.92 C79.84,156.50 80.08,156.00 81.50,156.00 C82.42,156.00 83.00,156.93 83.00,158.39 C83.00,160.09 83.70,160.96 85.43,161.39 C89.77,162.48 92.74,160.45 95.85,154.29 C98.26,149.50 98.68,147.63 98.28,143.49 C97.65,137.02 99.11,131.80 103.43,125.11 C105.34,122.14 107.20,118.35 107.57,116.69 L 108.23 113.66 L 109.91 115.88 C111.36,117.80 111.97,117.96 114.36,117.05 C118.64,115.43 126.06,115.84 130.75,117.97 C133.09,119.03 135.00,120.16 135.00,120.48 C135.00,120.80 132.14,120.76 128.64,120.40 C117.80,119.29 110.71,123.13 106.37,132.46 C104.05,137.43 103.45,142.36 104.63,146.75 C105.49,149.97 106.67,149.53 108.00,145.50 C109.53,140.87 112.44,139.00 118.15,139.00 C122.04,139.00 123.21,139.46 124.93,141.63 C126.07,143.08 127.00,145.33 127.00,146.62 C127.00,153.31 142.45,148.96 145.61,141.38 C148.84,133.66 146.29,118.80 140.08,109.12 C136.04,102.82 127.56,94.83 121.93,92.00 C119.49,90.77 116.60,88.95 115.50,87.95 C113.55,86.17 113.31,86.21 106.27,89.71 C100.08,92.78 98.07,93.29 92.27,93.26 C85.19,93.23 75.29,90.25 72.97,87.46 C67.53,80.91 64.61,97.32 69.39,107.58 C70.94,110.92 73.89,114.53 77.97,118.08 L 84.19 123.50 L 83.67 132.50 C82.97,144.46 81.66,148.61 77.95,150.52 C75.66,151.71 75.00,152.74 75.00,155.09 C75.00,156.76 75.48,159.03 76.07,160.13 ZM 82.67 85.38 C92.70,88.46 102.41,86.42 109.68,79.73 C118.17,71.90 120.82,62.24 117.32,51.91 C115.78,47.37 115.66,46.10 116.71,45.13 C118.27,43.67 118.46,33.40 116.94,32.46 C115.04,31.29 110.12,34.13 108.09,37.58 L 106.10 40.95 L 101.80 39.00 C96.63,36.65 84.83,36.34 81.02,38.45 C78.69,39.73 78.26,39.57 74.29,35.91 C71.95,33.76 69.18,32.00 68.13,32.00 C64.91,32.00 64.05,37.10 66.10,43.95 C66.98,46.89 66.88,48.58 65.60,52.35 C63.59,58.27 63.59,61.24 65.59,68.07 C67.68,75.18 75.60,83.20 82.67,85.38 ZM 65.23 160.83 C65.91,161.51 67.14,161.93 67.98,161.76 C69.16,161.53 69.42,160.30 69.16,156.20 C68.83,151.17 68.99,150.78 72.83,147.22 C76.47,143.84 76.95,142.80 78.11,135.78 L 79.38 128.05 L 73.44 122.65 L 67.50 117.24 L 66.31 126.49 C64.47,140.91 62.55,147.10 59.02,150.00 C55.53,152.87 55.18,155.77 57.92,159.14 L 59.84 161.50 L 60.90 158.75 C62.08,155.65 64.00,155.06 64.00,157.80 C64.00,158.79 64.55,160.15 65.23,160.83 ZM 121.42 160.17 C126.89,162.73 138.70,162.26 144.57,159.24 C152.59,155.11 159.45,144.05 156.09,140.69 C155.51,140.11 154.89,139.83 154.73,140.07 C154.56,140.30 153.27,142.30 151.86,144.50 C150.45,146.70 148.00,149.12 146.40,149.87 C144.81,150.62 142.64,151.68 141.59,152.23 C140.54,152.77 137.16,153.45 134.08,153.73 C126.53,154.41 121.28,152.27 120.82,148.33 C120.18,142.69 113.00,144.73 113.00,150.56 C113.00,153.71 116.73,157.96 121.42,160.17 ZM 107.37 58.93 C105.92,60.07 103.95,61.00 103.00,61.00 C102.05,61.00 100.08,60.07 98.63,58.93 C93.55,54.93 96.45,47.00 103.00,47.00 C109.55,47.00 112.45,54.93 107.37,58.93 ZM 84.69 58.83 C83.41,60.02 81.45,61.00 80.33,61.00 C77.37,61.00 73.00,56.55 73.00,53.55 C73.00,48.06 79.89,45.14 84.78,48.56 C87.83,50.69 87.78,55.92 84.69,58.83 ZM 89.16 75.92 C88.04,76.51 86.76,76.99 86.32,76.97 C84.55,76.90 82.00,74.82 82.00,73.45 C82.00,71.83 84.55,71.47 85.47,72.96 C86.34,74.36 88.83,73.11 89.53,70.92 C89.86,69.87 89.42,68.02 88.56,66.79 C86.23,63.45 86.58,63.00 91.50,63.00 C96.38,63.00 96.86,63.76 94.38,67.54 C92.19,70.88 94.11,73.43 98.19,72.61 C100.23,72.20 101.00,72.45 101.00,73.49 C101.00,75.97 97.21,77.33 94.00,76.00 C91.95,75.15 90.63,75.13 89.16,75.92 ZM 100.58 161.36 C101.05,162.56 102.48,163.00 105.94,163.00 C108.54,163.00 110.93,162.74 111.25,162.42 C111.70,161.97 109.29,156.81 107.39,154.16 C107.26,153.97 106.20,154.12 105.05,154.48 C102.32,155.35 99.78,159.26 100.58,161.36 ZM 78.53 54.05 C79.44,55.52 81.43,54.68 81.82,52.67 C82.01,51.70 81.51,51.00 80.63,51.00 C78.77,51.00 77.65,52.63 78.53,54.05 ZM 101.53 54.05 C102.44,55.52 104.43,54.68 104.82,52.67 C105.01,51.70 104.51,51.00 103.63,51.00 C101.77,51.00 100.65,52.63 101.53,54.05 Z" fill="rgb(2,2,2)"/>
<path d="M 0.00 96.00 L 0.00 0.00 L 96.00 0.00 L 192.00 0.00 L 192.00 96.00 L 192.00 192.00 L 96.00 192.00 L 0.00 192.00 L 0.00 96.00 ZM 149.70 167.37 C159.88,166.86 162.19,166.45 163.61,164.88 C165.26,163.06 165.12,163.00 159.15,163.00 C152.73,163.00 151.67,162.31 154.94,160.27 C158.06,158.32 162.02,150.61 162.65,145.27 C163.35,139.38 160.76,132.54 156.19,128.24 C154.36,126.51 152.83,123.65 152.07,120.50 C149.23,108.75 141.61,97.56 131.61,90.44 C118.31,80.96 118.61,81.48 122.23,74.07 C124.03,70.39 124.44,67.94 124.32,61.50 C124.24,57.10 124.15,49.05 124.12,43.60 C124.08,37.32 123.47,31.93 122.45,28.85 C120.97,24.41 120.57,24.00 117.67,24.00 C114.45,24.01 109.23,26.62 105.37,30.17 C103.42,31.96 102.69,32.03 97.05,31.01 C92.44,30.17 89.45,30.18 85.33,31.04 C80.05,32.13 79.68,32.07 77.15,29.71 C73.66,26.44 68.71,24.00 65.58,24.00 C61.13,24.00 59.62,28.61 59.19,43.50 C58.47,68.71 58.46,68.60 61.85,75.17 C64.89,81.07 64.92,81.25 63.33,84.84 C62.01,87.80 61.67,92.61 61.53,110.00 C61.32,135.87 60.22,141.26 53.96,147.03 C49.60,151.06 48.96,154.09 51.46,158.92 C52.26,160.48 52.64,162.03 52.29,162.37 C51.95,162.72 48.44,163.00 44.50,163.00 C36.84,163.00 35.37,163.53 37.13,165.66 C38.03,166.74 46.32,167.01 79.87,167.06 C102.77,167.09 123.30,167.51 125.50,167.98 C127.70,168.46 131.30,168.66 133.50,168.42 C135.70,168.18 142.99,167.71 149.70,167.37 ZM 100.58 161.36 C99.78,159.26 102.32,155.35 105.05,154.48 C106.20,154.12 107.26,153.97 107.39,154.16 C109.29,156.81 111.70,161.97 111.25,162.42 C110.93,162.74 108.54,163.00 105.94,163.00 C102.48,163.00 101.05,162.56 100.58,161.36 ZM 65.23 160.83 C64.55,160.15 64.00,158.79 64.00,157.80 C64.00,155.06 62.08,155.65 60.90,158.75 L 59.84 161.50 L 57.92 159.14 C55.18,155.77 55.53,152.87 59.02,150.00 C62.55,147.10 64.47,140.91 66.31,126.49 L 67.50 117.24 L 73.44 122.65 L 79.38 128.05 L 78.11 135.78 C76.95,142.80 76.47,143.84 72.83,147.22 C68.99,150.78 68.83,151.17 69.16,156.20 C69.42,160.30 69.16,161.53 67.98,161.76 C67.14,161.93 65.91,161.51 65.23,160.83 ZM 76.07 160.13 C75.48,159.03 75.00,156.76 75.00,155.09 C75.00,152.74 75.66,151.71 77.95,150.52 C81.66,148.61 82.97,144.46 83.67,132.50 L 84.19 123.50 L 77.97 118.08 C73.89,114.53 70.94,110.92 69.39,107.58 C64.61,97.32 67.53,80.91 72.97,87.46 C75.29,90.25 85.19,93.23 92.27,93.26 C98.07,93.29 100.08,92.78 106.27,89.71 C113.31,86.21 113.55,86.17 115.50,87.95 C116.60,88.95 119.49,90.77 121.93,92.00 C127.56,94.83 136.04,102.82 140.08,109.12 C146.29,118.80 148.84,133.66 145.61,141.38 C142.45,148.96 127.00,153.31 127.00,146.62 C127.00,145.33 126.07,143.08 124.93,141.63 C123.21,139.46 122.04,139.00 118.15,139.00 C112.44,139.00 109.53,140.87 108.00,145.50 C106.67,149.53 105.49,149.97 104.63,146.75 C103.45,142.36 104.05,137.43 106.37,132.46 C110.71,123.13 117.80,119.29 128.64,120.40 C132.14,120.76 135.00,120.80 135.00,120.48 C135.00,120.16 133.09,119.03 130.75,117.97 C126.06,115.84 118.64,115.43 114.36,117.05 C111.97,117.96 111.36,117.80 109.91,115.88 L 108.23 113.66 L 107.57 116.69 C107.20,118.35 105.34,122.14 103.43,125.11 C99.11,131.80 97.65,137.02 98.28,143.49 C98.68,147.63 98.26,149.50 95.85,154.29 C92.74,160.45 89.77,162.48 85.43,161.39 C83.70,160.96 83.00,160.09 83.00,158.39 C83.00,156.93 82.42,156.00 81.50,156.00 C80.08,156.00 79.84,156.50 79.59,159.92 C79.43,162.18 77.23,162.31 76.07,160.13 ZM 121.42 160.17 C116.73,157.96 113.00,153.71 113.00,150.56 C113.00,144.73 120.18,142.69 120.82,148.33 C121.28,152.27 126.53,154.41 134.08,153.73 C137.16,153.45 140.54,152.77 141.59,152.23 C142.64,151.68 144.81,150.62 146.40,149.87 C148.00,149.12 150.45,146.70 151.86,144.50 C153.27,142.30 154.56,140.30 154.73,140.07 C154.89,139.83 155.51,140.11 156.09,140.69 C159.45,144.05 152.59,155.11 144.57,159.24 C138.70,162.26 126.89,162.73 121.42,160.17 ZM 82.67 85.38 C75.60,83.20 67.68,75.18 65.59,68.07 C63.59,61.24 63.59,58.27 65.60,52.35 C66.88,48.58 66.98,46.89 66.10,43.95 C64.05,37.10 64.91,32.00 68.13,32.00 C69.18,32.00 71.95,33.76 74.29,35.91 C78.26,39.57 78.69,39.73 81.02,38.45 C84.83,36.34 96.63,36.65 101.80,39.00 L 106.10 40.95 L 108.09 37.58 C110.12,34.13 115.04,31.29 116.94,32.46 C118.46,33.40 118.27,43.67 116.71,45.13 C115.66,46.10 115.78,47.37 117.32,51.91 C120.82,62.24 118.17,71.90 109.68,79.73 C102.41,86.42 92.70,88.46 82.67,85.38 ZM 89.16 75.92 C90.63,75.13 91.95,75.15 94.00,76.00 C97.21,77.33 101.00,75.97 101.00,73.49 C101.00,72.45 100.23,72.20 98.19,72.61 C94.11,73.43 92.19,70.88 94.38,67.54 C96.86,63.76 96.38,63.00 91.50,63.00 C86.58,63.00 86.23,63.45 88.56,66.79 C89.42,68.02 89.86,69.87 89.53,70.92 C88.83,73.11 86.34,74.36 85.47,72.96 C84.55,71.47 82.00,71.83 82.00,73.45 C82.00,74.82 84.55,76.90 86.32,76.97 C86.76,76.99 88.04,76.51 89.16,75.92 ZM 84.69 58.83 C87.78,55.92 87.83,50.69 84.78,48.56 C79.89,45.14 73.00,48.06 73.00,53.55 C73.00,56.55 77.37,61.00 80.33,61.00 C81.45,61.00 83.41,60.02 84.69,58.83 ZM 107.37 58.93 C112.45,54.93 109.55,47.00 103.00,47.00 C96.45,47.00 93.55,54.93 98.63,58.93 C100.08,60.07 102.05,61.00 103.00,61.00 C103.95,61.00 105.92,60.07 107.37,58.93 ZM 78.53 54.05 C77.65,52.63 78.77,51.00 80.63,51.00 C81.51,51.00 82.01,51.70 81.82,52.67 C81.43,54.68 79.44,55.52 78.53,54.05 ZM 101.53 54.05 C100.65,52.63 101.77,51.00 103.63,51.00 C104.51,51.00 105.01,51.70 104.82,52.67 C104.43,54.68 102.44,55.52 101.53,54.05 Z" fill="rgb(254,254,254)"/>
</g>
</svg>